Platoon of  Dead (2011) DVDrip H264 AC3 NL Subs DMT
.
[IMG]http://img15.imageshack.us/img15/796/plodth2011.jpg[/IMG]
.
Beschrijving
Platoon of Death is een afspiegeling van de waargebeurde gruwelijke feiten in My Lai, Vietnam maart 1968. Een groep Amerikaanse soldaten verliest in de buurt van My Lai onverwacht een aantal van haar mannen. De groep kookt van woede en begint een ware veldslag onder aanvoering van Tweede Luitenant William Calley. Het dorp My Lai wordt totaal uitgeroeid, de soldaten worden gek en maken er een waar bloedbad van. Mannen, vrouwen en kinderen worden afgeslacht alsof het niets is.
.
PLOT
.
Three soldiers must fight to survive the night in a seemingly abandoned house, when a zombie platoon attacks. 
.
INFO
. 
http://www.imdb.com/title/tt1813519/
.
Source: Retail DVD
.
Video
ID                               : 0
Format                           : AVC
Format/Info                      : Advanced Video Codec
Format profile                   : High@L2.2
Format settings, CABAC           : Yes
Format settings, ReFrames        : 10 frames
Codec ID                         : H264
Duration                         : 1h 41mn
Bit rate                         : 733 Kbps
Width                            : 648 pixels
Height                           : 272 pixels
Display aspect ratio             : 2.35:1
Frame rate                       : 25.000 fps
Color space                      : YUV
Chroma subsampling               : 4:2:0
Bit depth                        : 8 bits
Scan type                        : Progressive
Bits/(Pixel*Frame)               : 0.166
Stream size                      : 529 MiB (76%)
Writing library                  : x264 core 93 r1538bm bd72d46
Encoding settings                : cabac=1 / ref=10 / deblock=1:-2:-1 / analyse=0x3:0x133 / me=umh / subme=6 / psy=1 / psy_rd=1.00:0.00 / mixed_ref=1 / me_range=16 / chroma_me=1 / trellis=2 / 8x8dct=1 / cqm=0 / deadzone=21,11 / fast_pskip=0 / chroma_qp_offset=-2 / threads=2 / sliced_threads=0 / nr=0 / decimate=1 / interlaced=0 / constrained_intra=0 / bframes=16 / b_pyramid=2 / b_adapt=1 / b_bias=0 / direct=1 / wpredb=1 / wpredp=2 / keyint=250 / keyint_min=25 / scenecut=40 / intra_refresh=0 / rc_lookahead=40 / rc=2pass / mbtree=1 / bitrate=733 / ratetol=1.0 / qcomp=0.60 / qpmin=10 / qpmax=51 / qpstep=4 / cplxblur=20.0 / qblur=0.5 / ip_ratio=1.40 / aq=1:1.00

Audio
ID                               : 1
Format                           : AC-3
Format/Info                      : Audio Coding 3
Mode extension                   : CM (complete main)
Codec ID                         : 2000
Duration                         : 1h 41mn
Bit rate mode                    : Constant
Bit rate                         : 224 Kbps
Channel(s)                       : 2 channels
Channel positions                : Front: L R
Sampling rate                    : 48.0 KHz
Bit depth                        : 16 bits
Stream size                      : 162 MiB (23%)
Alignment                        : Split accross interleaves
Interleave, duration             : 40 ms (1.00 video frame)
Interleave, preload duration     : 500 ms
.
Enjoy
.
Deze film wordt u aangeboden door:

DUTCH MOVIE THEATER

[IMG]http://img220.imageshack.us/img220/2386/dmta.png[/IMG]        
